<?xml version="1.0" encoding="utf-8"?>
<!-- Generator: Adobe Illustrator 27.0.0, SVG Export Plug-In . SVG Version: 6.00 Build 0)  -->
<svg version="1.1" id="Capa_1" xmlns="http://www.w3.org/2000/svg" xmlns:xlink="http://www.w3.org/1999/xlink" x="0px" y="0px"
	 viewBox="0 0 140 45" style="enable-background:new 0 0 140 45;" xml:space="preserve">
<style type="text/css">
	.st0{fill:none;}
	.st1{enable-background:new    ;}
</style>
<rect y="0" class="st0" width="140" height="45"/>
<rect x="7.8" y="10.4" class="st0" width="124.4" height="24.2"/>
<g class="st1">
	<path d="M11.6,33.4V11.7h5.1l9,14.8H23l8.7-14.8h5.1l0.1,21.7h-5.6l-0.1-13.1h1l-6.5,11h-2.7l-6.7-11h1.2v13.1H11.6z"/>
	<path d="M38.6,33.4l9.6-21.7h6l9.6,21.7h-6.4L50,14.7h2.4l-7.5,18.7H38.6z M43.9,29.2l1.6-4.5H56l1.6,4.5H43.9z"/>
	<path d="M65.6,33.4V11.7h6.1v16.8h10.4v4.9H65.6z"/>
	<path d="M84.5,33.4V11.7h11.1c2.9,0,5,0.5,6.4,1.6c1.4,1,2.1,2.4,2.1,4.1c0,1.1-0.3,2.1-0.9,2.9s-1.4,1.5-2.5,2S98.4,23,96.9,23
		l0.6-1.5c1.5,0,2.9,0.2,4,0.7c1.1,0.5,2,1.1,2.7,2c0.6,0.9,0.9,1.9,0.9,3.2c0,1.9-0.8,3.3-2.3,4.4c-1.5,1-3.7,1.6-6.6,1.6H84.5z
		 M90.6,29h5.1c1.1,0,1.9-0.2,2.4-0.5c0.5-0.4,0.8-0.9,0.8-1.7s-0.3-1.3-0.8-1.7c-0.5-0.4-1.3-0.5-2.4-0.5h-5.6v-4.2h4.6
		c1,0,1.8-0.2,2.3-0.5c0.5-0.4,0.8-0.9,0.8-1.6c0-0.7-0.3-1.2-0.8-1.6c-0.5-0.3-1.3-0.5-2.3-0.5h-4.2V29z"/>
	<path d="M105.7,33.4l9.6-21.7h6l9.6,21.7h-6.4l-7.5-18.7h2.4L112,33.4H105.7z M111,29.2l1.6-4.5h10.6l1.6,4.5H111z"/>
</g>
</svg>
